<svg xmlns="http://www.w3.org/2000/svg" viewBox="0 0 32 32">
  <defs>
    <linearGradient id="grad1" x1="0%" y1="0%" x2="100%" y2="100%">
      <stop offset="0%" style="stop-color:#3b82f6;stop-opacity:1" />
      <stop offset="100%" style="stop-color:#1d4ed8;stop-opacity:1" />
    </linearGradient>
  </defs>
  
  <!-- Background circle -->
  <circle cx="16" cy="16" r="15" fill="url(#grad1)"/>
  
  <!-- Simplified S with sync arrows -->
  <g fill="white">
    <!-- Top curve with arrow -->
    <path d="M10 9 Q16 5 22 9 L22 7 L26 11 L21 13 L21 11 Q16 8 12 11 L12 13 L8 9 L10 9 Z" />
    
    <!-- Bottom curve with arrow -->
    <path d="M22 23 Q16 27 10 23 L10 25 L6 21 L11 19 L11 21 Q16 24 20 21 L20 19 L24 23 L22 23 Z" />
    
    <!-- Center bars -->
    <rect x="12" y="13" width="3" height="6" rx="1"/>
    <rect x="16" y="11" width="3" height="8" rx="1"/>
  </g>
</svg>
